0
SECTION
2
HEADER
9
$INSUNITS
70
4
0
ENDSEC
0
SECTION
2
TABLES
0
TABLE
2
LTYPE
0
LTYPE
72
65
70
64
2
CONTINUOUS
3
______
73
0
40
0
0
ENDTAB
0
TABLE
2
LAYER
0
ENDTAB
0
ENDSEC
0
SECTION
2
ENTITIES
0
LINE
8
0
10
12.55
20
-2.525
11
25.55
21
-2.525
0
LINE
8
0
10
12.55
20
-16.525
11
25.55
21
-16.525
0
LINE
8
0
10
12.05
20
-3.025
11
12.05
21
-16.025
0
LINE
8
0
10
26.05
20
-3.025
11
26.05
21
-16.025
0
ARC
8
0
10
12.55
20
-3.025
40
0.5
50
90
51
180
0
ARC
8
0
10
25.55
20
-3.025
40
0.5
50
0
51
90
0
ARC
8
0
10
12.55
20
-16.025
40
0.5
50
180
51
270
0
ARC
8
0
10
25.55
20
-16.025
40
0.5
50
270
51
0
0
LINE
8
0
10
31.6
20
-2.525
11
44.6
21
-2.525
0
LINE
8
0
10
31.6
20
-16.525
11
44.6
21
-16.525
0
LINE
8
0
10
31.1
20
-3.025
11
31.1
21
-16.025
0
LINE
8
0
10
45.1
20
-3.025
11
45.1
21
-16.025
0
ARC
8
0
10
31.6
20
-3.025
40
0.5
50
90
51
180
0
ARC
8
0
10
44.6
20
-3.025
40
0.5
50
0
51
90
0
ARC
8
0
10
31.6
20
-16.025
40
0.5
50
180
51
270
0
ARC
8
0
10
44.6
20
-16.025
40
0.5
50
270
51
0
0
LINE
8
0
10
50.65
20
-2.525
11
63.65
21
-2.525
0
LINE
8
0
10
50.65
20
-16.525
11
63.65
21
-16.525
0
LINE
8
0
10
50.15
20
-3.025
11
50.15
21
-16.025
0
LINE
8
0
10
64.15
20
-3.025
11
64.15
21
-16.025
0
ARC
8
0
10
50.65
20
-3.025
40
0.5
50
90
51
180
0
ARC
8
0
10
63.65
20
-3.025
40
0.5
50
0
51
90
0
ARC
8
0
10
50.65
20
-16.025
40
0.5
50
180
51
270
0
ARC
8
0
10
63.65
20
-16.025
40
0.5
50
270
51
0
0
LINE
8
0
10
69.7
20
-2.525
11
82.7
21
-2.525
0
LINE
8
0
10
69.7
20
-16.525
11
82.7
21
-16.525
0
LINE
8
0
10
69.2
20
-3.025
11
69.2
21
-16.025
0
LINE
8
0
10
83.2
20
-3.025
11
83.2
21
-16.025
0
ARC
8
0
10
69.7
20
-3.025
40
0.5
50
90
51
180
0
ARC
8
0
10
82.7
20
-3.025
40
0.5
50
0
51
90
0
ARC
8
0
10
69.7
20
-16.025
40
0.5
50
180
51
270
0
ARC
8
0
10
82.7
20
-16.025
40
0.5
50
270
51
0
0
LINE
8
0
10
88.75
20
-2.525
11
101.75
21
-2.525
0
LINE
8
0
10
88.75
20
-16.525
11
101.75
21
-16.525
0
LINE
8
0
10
88.25
20
-3.025
11
88.25
21
-16.025
0
LINE
8
0
10
102.25
20
-3.025
11
102.25
21
-16.025
0
ARC
8
0
10
88.75
20
-3.025
40
0.5
50
90
51
180
0
ARC
8
0
10
101.75
20
-3.025
40
0.5
50
0
51
90
0
ARC
8
0
10
88.75
20
-16.025
40
0.5
50
180
51
270
0
ARC
8
0
10
101.75
20
-16.025
40
0.5
50
270
51
0
0
LINE
8
0
10
117.325
20
-2.525
11
130.325
21
-2.525
0
LINE
8
0
10
117.325
20
-16.525
11
130.325
21
-16.525
0
LINE
8
0
10
116.825
20
-3.025
11
116.825
21
-16.025
0
LINE
8
0
10
130.825
20
-3.025
11
130.825
21
-16.025
0
ARC
8
0
10
117.325
20
-3.025
40
0.5
50
90
51
180
0
ARC
8
0
10
130.325
20
-3.025
40
0.5
50
0
51
90
0
ARC
8
0
10
117.325
20
-16.025
40
0.5
50
180
51
270
0
ARC
8
0
10
130.325
20
-16.025
40
0.5
50
270
51
0
0
LINE
8
0
10
108.887
20
-3.525
11
114.887
21
-3.525
0
LINE
8
0
10
108.887
20
-18.525
11
114.887
21
-18.525
0
LINE
8
0
10
108.387
20
-4.025
11
108.387
21
-18.025
0
LINE
8
0
10
115.387
20
-4.025
11
115.387
21
-18.025
0
ARC
8
0
10
108.887
20
-4.025
40
0.5
50
90
51
180
0
ARC
8
0
10
114.887
20
-4.025
40
0.5
50
0
51
90
0
ARC
8
0
10
108.887
20
-18.025
40
0.5
50
180
51
270
0
ARC
8
0
10
114.887
20
-18.025
40
0.5
50
270
51
0
0
LINE
8
0
10
132.763
20
-3.525
11
138.763
21
-3.525
0
LINE
8
0
10
132.763
20
-18.525
11
138.763
21
-18.525
0
LINE
8
0
10
132.263
20
-4.025
11
132.263
21
-18.025
0
LINE
8
0
10
139.263
20
-4.025
11
139.263
21
-18.025
0
ARC
8
0
10
132.763
20
-4.025
40
0.5
50
90
51
180
0
ARC
8
0
10
138.763
20
-4.025
40
0.5
50
0
51
90
0
ARC
8
0
10
132.763
20
-18.025
40
0.5
50
180
51
270
0
ARC
8
0
10
138.763
20
-18.025
40
0.5
50
270
51
0
0
LINE
8
0
10
145.9
20
-2.525
11
158.9
21
-2.525
0
LINE
8
0
10
145.9
20
-16.525
11
158.9
21
-16.525
0
LINE
8
0
10
145.4
20
-3.025
11
145.4
21
-16.025
0
LINE
8
0
10
159.4
20
-3.025
11
159.4
21
-16.025
0
ARC
8
0
10
145.9
20
-3.025
40
0.5
50
90
51
180
0
ARC
8
0
10
158.9
20
-3.025
40
0.5
50
0
51
90
0
ARC
8
0
10
145.9
20
-16.025
40
0.5
50
180
51
270
0
ARC
8
0
10
158.9
20
-16.025
40
0.5
50
270
51
0
0
LINE
8
0
10
3.025
20
-21.575
11
16.025
21
-21.575
0
LINE
8
0
10
3.025
20
-35.575
11
16.025
21
-35.575
0
LINE
8
0
10
2.525
20
-22.075
11
2.525
21
-35.075
0
LINE
8
0
10
16.525
20
-22.075
11
16.525
21
-35.075
0
ARC
8
0
10
3.025
20
-22.075
40
0.5
50
90
51
180
0
ARC
8
0
10
16.025
20
-22.075
40
0.5
50
0
51
90
0
ARC
8
0
10
3.025
20
-35.075
40
0.5
50
180
51
270
0
ARC
8
0
10
16.025
20
-35.075
40
0.5
50
270
51
0
0
LINE
8
0
10
22.075
20
-21.575
11
35.075
21
-21.575
0
LINE
8
0
10
22.075
20
-35.575
11
35.075
21
-35.575
0
LINE
8
0
10
21.575
20
-22.075
11
21.575
21
-35.075
0
LINE
8
0
10
35.575
20
-22.075
11
35.575
21
-35.075
0
ARC
8
0
10
22.075
20
-22.075
40
0.5
50
90
51
180
0
ARC
8
0
10
35.075
20
-22.075
40
0.5
50
0
51
90
0
ARC
8
0
10
22.075
20
-35.075
40
0.5
50
180
51
270
0
ARC
8
0
10
35.075
20
-35.075
40
0.5
50
270
51
0
0
LINE
8
0
10
41.125
20
-21.575
11
54.125
21
-21.575
0
LINE
8
0
10
41.125
20
-35.575
11
54.125
21
-35.575
0
LINE
8
0
10
40.625
20
-22.075
11
40.625
21
-35.075
0
LINE
8
0
10
54.625
20
-22.075
11
54.625
21
-35.075
0
ARC
8
0
10
41.125
20
-22.075
40
0.5
50
90
51
180
0
ARC
8
0
10
54.125
20
-22.075
40
0.5
50
0
51
90
0
ARC
8
0
10
41.125
20
-35.075
40
0.5
50
180
51
270
0
ARC
8
0
10
54.125
20
-35.075
40
0.5
50
270
51
0
0
LINE
8
0
10
60.175
20
-21.575
11
73.175
21
-21.575
0
LINE
8
0
10
60.175
20
-35.575
11
73.175
21
-35.575
0
LINE
8
0
10
59.675
20
-22.075
11
59.675
21
-35.075
0
LINE
8
0
10
73.675
20
-22.075
11
73.675
21
-35.075
0
ARC
8
0
10
60.175
20
-22.075
40
0.5
50
90
51
180
0
ARC
8
0
10
73.175
20
-22.075
40
0.5
50
0
51
90
0
ARC
8
0
10
60.175
20
-35.075
40
0.5
50
180
51
270
0
ARC
8
0
10
73.175
20
-35.075
40
0.5
50
270
51
0
0
LINE
8
0
10
79.225
20
-21.575
11
92.225
21
-21.575
0
LINE
8
0
10
79.225
20
-35.575
11
92.225
21
-35.575
0
LINE
8
0
10
78.725
20
-22.075
11
78.725
21
-35.075
0
LINE
8
0
10
92.725
20
-22.075
11
92.725
21
-35.075
0
ARC
8
0
10
79.225
20
-22.075
40
0.5
50
90
51
180
0
ARC
8
0
10
92.225
20
-22.075
40
0.5
50
0
51
90
0
ARC
8
0
10
79.225
20
-35.075
40
0.5
50
180
51
270
0
ARC
8
0
10
92.225
20
-35.075
40
0.5
50
270
51
0
0
LINE
8
0
10
98.275
20
-21.575
11
111.275
21
-21.575
0
LINE
8
0
10
98.275
20
-35.575
11
111.275
21
-35.575
0
LINE
8
0
10
97.775
20
-22.075
11
97.775
21
-35.075
0
LINE
8
0
10
111.775
20
-22.075
11
111.775
21
-35.075
0
ARC
8
0
10
98.275
20
-22.075
40
0.5
50
90
51
180
0
ARC
8
0
10
111.275
20
-22.075
40
0.5
50
0
51
90
0
ARC
8
0
10
98.275
20
-35.075
40
0.5
50
180
51
270
0
ARC
8
0
10
111.275
20
-35.075
40
0.5
50
270
51
0
0
LINE
8
0
10
122.0875
20
-21.575
11
135.0875
21
-21.575
0
LINE
8
0
10
122.0875
20
-35.575
11
135.0875
21
-35.575
0
LINE
8
0
10
121.5875
20
-22.075
11
121.5875
21
-35.075
0
LINE
8
0
10
135.5875
20
-22.075
11
135.5875
21
-35.075
0
ARC
8
0
10
122.0875
20
-22.075
40
0.5
50
90
51
180
0
ARC
8
0
10
135.0875
20
-22.075
40
0.5
50
0
51
90
0
ARC
8
0
10
122.0875
20
-35.075
40
0.5
50
180
51
270
0
ARC
8
0
10
135.0875
20
-35.075
40
0.5
50
270
51
0
0
LINE
8
0
10
145.9
20
-21.575
11
158.9
21
-21.575
0
LINE
8
0
10
145.9
20
-35.575
11
158.9
21
-35.575
0
LINE
8
0
10
145.4
20
-22.075
11
145.4
21
-35.075
0
LINE
8
0
10
159.4
20
-22.075
11
159.4
21
-35.075
0
ARC
8
0
10
145.9
20
-22.075
40
0.5
50
90
51
180
0
ARC
8
0
10
158.9
20
-22.075
40
0.5
50
0
51
90
0
ARC
8
0
10
145.9
20
-35.075
40
0.5
50
180
51
270
0
ARC
8
0
10
158.9
20
-35.075
40
0.5
50
270
51
0
0
LINE
8
0
10
7.7875
20
-40.625
11
20.7875
21
-40.625
0
LINE
8
0
10
7.7875
20
-54.625
11
20.7875
21
-54.625
0
LINE
8
0
10
7.2875
20
-41.125
11
7.2875
21
-54.125
0
LINE
8
0
10
21.2875
20
-41.125
11
21.2875
21
-54.125
0
ARC
8
0
10
7.7875
20
-41.125
40
0.5
50
90
51
180
0
ARC
8
0
10
20.7875
20
-41.125
40
0.5
50
0
51
90
0
ARC
8
0
10
7.7875
20
-54.125
40
0.5
50
180
51
270
0
ARC
8
0
10
20.7875
20
-54.125
40
0.5
50
270
51
0
0
LINE
8
0
10
26.8375
20
-40.625
11
39.8375
21
-40.625
0
LINE
8
0
10
26.8375
20
-54.625
11
39.8375
21
-54.625
0
LINE
8
0
10
26.3375
20
-41.125
11
26.3375
21
-54.125
0
LINE
8
0
10
40.3375
20
-41.125
11
40.3375
21
-54.125
0
ARC
8
0
10
26.8375
20
-41.125
40
0.5
50
90
51
180
0
ARC
8
0
10
39.8375
20
-41.125
40
0.5
50
0
51
90
0
ARC
8
0
10
26.8375
20
-54.125
40
0.5
50
180
51
270
0
ARC
8
0
10
39.8375
20
-54.125
40
0.5
50
270
51
0
0
LINE
8
0
10
45.8875
20
-40.625
11
58.8875
21
-40.625
0
LINE
8
0
10
45.8875
20
-54.625
11
58.8875
21
-54.625
0
LINE
8
0
10
45.3875
20
-41.125
11
45.3875
21
-54.125
0
LINE
8
0
10
59.3875
20
-41.125
11
59.3875
21
-54.125
0
ARC
8
0
10
45.8875
20
-41.125
40
0.5
50
90
51
180
0
ARC
8
0
10
58.8875
20
-41.125
40
0.5
50
0
51
90
0
ARC
8
0
10
45.8875
20
-54.125
40
0.5
50
180
51
270
0
ARC
8
0
10
58.8875
20
-54.125
40
0.5
50
270
51
0
0
LINE
8
0
10
64.9375
20
-40.625
11
77.9375
21
-40.625
0
LINE
8
0
10
64.9375
20
-54.625
11
77.9375
21
-54.625
0
LINE
8
0
10
64.4375
20
-41.125
11
64.4375
21
-54.125
0
LINE
8
0
10
78.4375
20
-41.125
11
78.4375
21
-54.125
0
ARC
8
0
10
64.9375
20
-41.125
40
0.5
50
90
51
180
0
ARC
8
0
10
77.9375
20
-41.125
40
0.5
50
0
51
90
0
ARC
8
0
10
64.9375
20
-54.125
40
0.5
50
180
51
270
0
ARC
8
0
10
77.9375
20
-54.125
40
0.5
50
270
51
0
0
LINE
8
0
10
83.9875
20
-40.625
11
96.9875
21
-40.625
0
LINE
8
0
10
83.9875
20
-54.625
11
96.9875
21
-54.625
0
LINE
8
0
10
83.4875
20
-41.125
11
83.4875
21
-54.125
0
LINE
8
0
10
97.4875
20
-41.125
11
97.4875
21
-54.125
0
ARC
8
0
10
83.9875
20
-41.125
40
0.5
50
90
51
180
0
ARC
8
0
10
96.9875
20
-41.125
40
0.5
50
0
51
90
0
ARC
8
0
10
83.9875
20
-54.125
40
0.5
50
180
51
270
0
ARC
8
0
10
96.9875
20
-54.125
40
0.5
50
270
51
0
0
LINE
8
0
10
114.94375
20
-40.625
11
127.94375
21
-40.625
0
LINE
8
0
10
114.94375
20
-54.625
11
127.94375
21
-54.625
0
LINE
8
0
10
114.44375
20
-41.125
11
114.44375
21
-54.125
0
LINE
8
0
10
128.44375
20
-41.125
11
128.44375
21
-54.125
0
ARC
8
0
10
114.94375
20
-41.125
40
0.5
50
90
51
180
0
ARC
8
0
10
127.94375
20
-41.125
40
0.5
50
0
51
90
0
ARC
8
0
10
114.94375
20
-54.125
40
0.5
50
180
51
270
0
ARC
8
0
10
127.94375
20
-54.125
40
0.5
50
270
51
0
0
LINE
8
0
10
106.50575
20
-41.625
11
112.50575
21
-41.625
0
LINE
8
0
10
106.50575
20
-56.625
11
112.50575
21
-56.625
0
LINE
8
0
10
106.00575
20
-42.125
11
106.00575
21
-56.125
0
LINE
8
0
10
113.00575
20
-42.125
11
113.00575
21
-56.125
0
ARC
8
0
10
106.50575
20
-42.125
40
0.5
50
90
51
180
0
ARC
8
0
10
112.50575
20
-42.125
40
0.5
50
0
51
90
0
ARC
8
0
10
106.50575
20
-56.125
40
0.5
50
180
51
270
0
ARC
8
0
10
112.50575
20
-56.125
40
0.5
50
270
51
0
0
LINE
8
0
10
130.38175
20
-41.625
11
136.38175
21
-41.625
0
LINE
8
0
10
130.38175
20
-56.625
11
136.38175
21
-56.625
0
LINE
8
0
10
129.88175
20
-42.125
11
129.88175
21
-56.125
0
LINE
8
0
10
136.88175
20
-42.125
11
136.88175
21
-56.125
0
ARC
8
0
10
130.38175
20
-42.125
40
0.5
50
90
51
180
0
ARC
8
0
10
136.38175
20
-42.125
40
0.5
50
0
51
90
0
ARC
8
0
10
130.38175
20
-56.125
40
0.5
50
180
51
270
0
ARC
8
0
10
136.38175
20
-56.125
40
0.5
50
270
51
0
0
LINE
8
0
10
145.9
20
-40.625
11
158.9
21
-40.625
0
LINE
8
0
10
145.9
20
-54.625
11
158.9
21
-54.625
0
LINE
8
0
10
145.4
20
-41.125
11
145.4
21
-54.125
0
LINE
8
0
10
159.4
20
-41.125
11
159.4
21
-54.125
0
ARC
8
0
10
145.9
20
-41.125
40
0.5
50
90
51
180
0
ARC
8
0
10
158.9
20
-41.125
40
0.5
50
0
51
90
0
ARC
8
0
10
145.9
20
-54.125
40
0.5
50
180
51
270
0
ARC
8
0
10
158.9
20
-54.125
40
0.5
50
270
51
0
0
LINE
8
0
10
17.3125
20
-59.675
11
30.3125
21
-59.675
0
LINE
8
0
10
17.3125
20
-73.675
11
30.3125
21
-73.675
0
LINE
8
0
10
16.8125
20
-60.175
11
16.8125
21
-73.175
0
LINE
8
0
10
30.8125
20
-60.175
11
30.8125
21
-73.175
0
ARC
8
0
10
17.3125
20
-60.175
40
0.5
50
90
51
180
0
ARC
8
0
10
30.3125
20
-60.175
40
0.5
50
0
51
90
0
ARC
8
0
10
17.3125
20
-73.175
40
0.5
50
180
51
270
0
ARC
8
0
10
30.3125
20
-73.175
40
0.5
50
270
51
0
0
LINE
8
0
10
36.3625
20
-59.675
11
49.3625
21
-59.675
0
LINE
8
0
10
36.3625
20
-73.675
11
49.3625
21
-73.675
0
LINE
8
0
10
35.8625
20
-60.175
11
35.8625
21
-73.175
0
LINE
8
0
10
49.8625
20
-60.175
11
49.8625
21
-73.175
0
ARC
8
0
10
36.3625
20
-60.175
40
0.5
50
90
51
180
0
ARC
8
0
10
49.3625
20
-60.175
40
0.5
50
0
51
90
0
ARC
8
0
10
36.3625
20
-73.175
40
0.5
50
180
51
270
0
ARC
8
0
10
49.3625
20
-73.175
40
0.5
50
270
51
0
0
LINE
8
0
10
55.4125
20
-59.675
11
68.4125
21
-59.675
0
LINE
8
0
10
55.4125
20
-73.675
11
68.4125
21
-73.675
0
LINE
8
0
10
54.9125
20
-60.175
11
54.9125
21
-73.175
0
LINE
8
0
10
68.9125
20
-60.175
11
68.9125
21
-73.175
0
ARC
8
0
10
55.4125
20
-60.175
40
0.5
50
90
51
180
0
ARC
8
0
10
68.4125
20
-60.175
40
0.5
50
0
51
90
0
ARC
8
0
10
55.4125
20
-73.175
40
0.5
50
180
51
270
0
ARC
8
0
10
68.4125
20
-73.175
40
0.5
50
270
51
0
0
LINE
8
0
10
74.4625
20
-59.675
11
87.4625
21
-59.675
0
LINE
8
0
10
74.4625
20
-73.675
11
87.4625
21
-73.675
0
LINE
8
0
10
73.9625
20
-60.175
11
73.9625
21
-73.175
0
LINE
8
0
10
87.9625
20
-60.175
11
87.9625
21
-73.175
0
ARC
8
0
10
74.4625
20
-60.175
40
0.5
50
90
51
180
0
ARC
8
0
10
87.4625
20
-60.175
40
0.5
50
0
51
90
0
ARC
8
0
10
74.4625
20
-73.175
40
0.5
50
180
51
270
0
ARC
8
0
10
87.4625
20
-73.175
40
0.5
50
270
51
0
0
LINE
8
0
10
100.65625
20
-59.675
11
113.65625
21
-59.675
0
LINE
8
0
10
100.65625
20
-73.675
11
113.65625
21
-73.675
0
LINE
8
0
10
100.15625
20
-60.175
11
100.15625
21
-73.175
0
LINE
8
0
10
114.15625
20
-60.175
11
114.15625
21
-73.175
0
ARC
8
0
10
100.65625
20
-60.175
40
0.5
50
90
51
180
0
ARC
8
0
10
113.65625
20
-60.175
40
0.5
50
0
51
90
0
ARC
8
0
10
100.65625
20
-73.175
40
0.5
50
180
51
270
0
ARC
8
0
10
113.65625
20
-73.175
40
0.5
50
270
51
0
0
LINE
8
0
10
126.85
20
-59.675
11
139.85
21
-59.675
0
LINE
8
0
10
126.85
20
-73.675
11
139.85
21
-73.675
0
LINE
8
0
10
126.35
20
-60.175
11
126.35
21
-73.175
0
LINE
8
0
10
140.35
20
-60.175
11
140.35
21
-73.175
0
ARC
8
0
10
126.85
20
-60.175
40
0.5
50
90
51
180
0
ARC
8
0
10
139.85
20
-60.175
40
0.5
50
0
51
90
0
ARC
8
0
10
126.85
20
-73.175
40
0.5
50
180
51
270
0
ARC
8
0
10
139.85
20
-73.175
40
0.5
50
270
51
0
0
LINE
8
0
10
145.9
20
-59.675
11
158.9
21
-59.675
0
LINE
8
0
10
145.9
20
-73.675
11
158.9
21
-73.675
0
LINE
8
0
10
145.4
20
-60.175
11
145.4
21
-73.175
0
LINE
8
0
10
159.4
20
-60.175
11
159.4
21
-73.175
0
ARC
8
0
10
145.9
20
-60.175
40
0.5
50
90
51
180
0
ARC
8
0
10
158.9
20
-60.175
40
0.5
50
0
51
90
0
ARC
8
0
10
145.9
20
-73.175
40
0.5
50
180
51
270
0
ARC
8
0
10
158.9
20
-73.175
40
0.5
50
270
51
0
0
LINE
8
0
10
19.69375
20
-78.725
11
32.69375
21
-78.725
0
LINE
8
0
10
19.69375
20
-92.725
11
32.69375
21
-92.725
0
LINE
8
0
10
19.19375
20
-79.225
11
19.19375
21
-92.225
0
LINE
8
0
10
33.19375
20
-79.225
11
33.19375
21
-92.225
0
ARC
8
0
10
19.69375
20
-79.225
40
0.5
50
90
51
180
0
ARC
8
0
10
32.69375
20
-79.225
40
0.5
50
0
51
90
0
ARC
8
0
10
19.69375
20
-92.225
40
0.5
50
180
51
270
0
ARC
8
0
10
32.69375
20
-92.225
40
0.5
50
270
51
0
0
LINE
8
0
10
11.25575
20
-79.725
11
17.25575
21
-79.725
0
LINE
8
0
10
11.25575
20
-94.725
11
17.25575
21
-94.725
0
LINE
8
0
10
10.75575
20
-80.225
11
10.75575
21
-94.225
0
LINE
8
0
10
17.75575
20
-80.225
11
17.75575
21
-94.225
0
ARC
8
0
10
11.25575
20
-80.225
40
0.5
50
90
51
180
0
ARC
8
0
10
17.25575
20
-80.225
40
0.5
50
0
51
90
0
ARC
8
0
10
11.25575
20
-94.225
40
0.5
50
180
51
270
0
ARC
8
0
10
17.25575
20
-94.225
40
0.5
50
270
51
0
0
LINE
8
0
10
35.13175
20
-79.725
11
41.13175
21
-79.725
0
LINE
8
0
10
35.13175
20
-94.725
11
41.13175
21
-94.725
0
LINE
8
0
10
34.63175
20
-80.225
11
34.63175
21
-94.225
0
LINE
8
0
10
41.63175
20
-80.225
11
41.63175
21
-94.225
0
ARC
8
0
10
35.13175
20
-80.225
40
0.5
50
90
51
180
0
ARC
8
0
10
41.13175
20
-80.225
40
0.5
50
0
51
90
0
ARC
8
0
10
35.13175
20
-94.225
40
0.5
50
180
51
270
0
ARC
8
0
10
41.13175
20
-94.225
40
0.5
50
270
51
0
0
LINE
8
0
10
50.65
20
-78.725
11
63.65
21
-78.725
0
LINE
8
0
10
50.65
20
-92.725
11
63.65
21
-92.725
0
LINE
8
0
10
50.15
20
-79.225
11
50.15
21
-92.225
0
LINE
8
0
10
64.15
20
-79.225
11
64.15
21
-92.225
0
ARC
8
0
10
50.65
20
-79.225
40
0.5
50
90
51
180
0
ARC
8
0
10
63.65
20
-79.225
40
0.5
50
0
51
90
0
ARC
8
0
10
50.65
20
-92.225
40
0.5
50
180
51
270
0
ARC
8
0
10
63.65
20
-92.225
40
0.5
50
270
51
0
0
LINE
8
0
10
69.7
20
-78.725
11
82.7
21
-78.725
0
LINE
8
0
10
69.7
20
-92.725
11
82.7
21
-92.725
0
LINE
8
0
10
69.2
20
-79.225
11
69.2
21
-92.225
0
LINE
8
0
10
83.2
20
-79.225
11
83.2
21
-92.225
0
ARC
8
0
10
69.7
20
-79.225
40
0.5
50
90
51
180
0
ARC
8
0
10
82.7
20
-79.225
40
0.5
50
0
51
90
0
ARC
8
0
10
69.7
20
-92.225
40
0.5
50
180
51
270
0
ARC
8
0
10
82.7
20
-92.225
40
0.5
50
270
51
0
0
LINE
8
0
10
88.75
20
-78.725
11
101.75
21
-78.725
0
LINE
8
0
10
88.75
20
-92.725
11
101.75
21
-92.725
0
LINE
8
0
10
88.25
20
-79.225
11
88.25
21
-92.225
0
LINE
8
0
10
102.25
20
-79.225
11
102.25
21
-92.225
0
ARC
8
0
10
88.75
20
-79.225
40
0.5
50
90
51
180
0
ARC
8
0
10
101.75
20
-79.225
40
0.5
50
0
51
90
0
ARC
8
0
10
88.75
20
-92.225
40
0.5
50
180
51
270
0
ARC
8
0
10
101.75
20
-92.225
40
0.5
50
270
51
0
0
LINE
8
0
10
107.8
20
-78.725
11
120.8
21
-78.725
0
LINE
8
0
10
107.8
20
-92.725
11
120.8
21
-92.725
0
LINE
8
0
10
107.3
20
-79.225
11
107.3
21
-92.225
0
LINE
8
0
10
121.3
20
-79.225
11
121.3
21
-92.225
0
ARC
8
0
10
107.8
20
-79.225
40
0.5
50
90
51
180
0
ARC
8
0
10
120.8
20
-79.225
40
0.5
50
0
51
90
0
ARC
8
0
10
107.8
20
-92.225
40
0.5
50
180
51
270
0
ARC
8
0
10
120.8
20
-92.225
40
0.5
50
270
51
0
0
LINE
8
0
10
126.85
20
-78.725
11
139.85
21
-78.725
0
LINE
8
0
10
126.85
20
-92.725
11
139.85
21
-92.725
0
LINE
8
0
10
126.35
20
-79.225
11
126.35
21
-92.225
0
LINE
8
0
10
140.35
20
-79.225
11
140.35
21
-92.225
0
ARC
8
0
10
126.85
20
-79.225
40
0.5
50
90
51
180
0
ARC
8
0
10
139.85
20
-79.225
40
0.5
50
0
51
90
0
ARC
8
0
10
126.85
20
-92.225
40
0.5
50
180
51
270
0
ARC
8
0
10
139.85
20
-92.225
40
0.5
50
270
51
0
0
LINE
8
0
10
145.9
20
-78.725
11
158.9
21
-78.725
0
LINE
8
0
10
145.9
20
-92.725
11
158.9
21
-92.725
0
LINE
8
0
10
145.4
20
-79.225
11
145.4
21
-92.225
0
LINE
8
0
10
159.4
20
-79.225
11
159.4
21
-92.225
0
ARC
8
0
10
145.9
20
-79.225
40
0.5
50
90
51
180
0
ARC
8
0
10
158.9
20
-79.225
40
0.5
50
0
51
90
0
ARC
8
0
10
145.9
20
-92.225
40
0.5
50
180
51
270
0
ARC
8
0
10
158.9
20
-92.225
40
0.5
50
270
51
0
0
LINE
8
0
10
0
20
-95.25
11
161.925
21
-95.25
0
LINE
8
0
10
0
20
0
11
161.925
21
0
0
LINE
8
0
10
0
20
-95.25
11
0
21
0
0
LINE
8
0
10
161.925
20
-95.25
11
161.925
21
0
0
ENDSEC
0
EOF